<svg width="28" height="28" viewBox="0 0 28 28" fill="none" xmlns="http://www.w3.org/2000/svg">
<path d="M23.4001 4.54675C20.9067 2.04008 17.5867 0.666748 14.0534 0.666748C6.7734 0.666748 0.840065 6.60008 0.840065 13.8801C0.840065 16.2134 1.4534 18.4801 2.60007 20.4801L0.733398 27.3334L7.7334 25.4934C9.66673 26.5467 11.8401 27.1067 14.0534 27.1067C21.3334 27.1067 27.2667 21.1734 27.2667 13.8934C27.2667 10.3601 25.8934 7.04008 23.4001 4.54675ZM14.0534 24.8667C12.0801 24.8667 10.1467 24.3334 8.4534 23.3334L8.0534 23.0934L3.8934 24.1867L5.00006 20.1334L4.7334 19.7201C3.64007 17.9734 3.0534 15.9467 3.0534 13.8801C3.0534 7.82675 7.98673 2.89341 14.0401 2.89341C16.9734 2.89341 19.7334 4.04008 21.8001 6.12008C23.8801 8.20008 25.0134 10.9601 25.0134 13.8934C25.0401 19.9467 20.1067 24.8667 14.0534 24.8667ZM20.0801 16.6534C19.7467 16.4934 18.1201 15.6934 17.8267 15.5734C17.5201 15.4667 17.3067 15.4134 17.0801 15.7334C16.8534 16.0667 16.2267 16.8134 16.0401 17.0267C15.8534 17.2534 15.6534 17.2801 15.3201 17.1067C14.9867 16.9467 13.9201 16.5867 12.6667 15.4667C11.6801 14.5867 11.0267 13.5067 10.8267 13.1734C10.6401 12.8401 10.8001 12.6667 10.9734 12.4934C11.1201 12.3467 11.3067 12.1067 11.4667 11.9201C11.6267 11.7334 11.6934 11.5867 11.8001 11.3734C11.9067 11.1467 11.8534 10.9601 11.7734 10.8001C11.6934 10.6401 11.0267 9.01341 10.7601 8.34675C10.4934 7.70675 10.2134 7.78675 10.0134 7.77341C9.8134 7.77341 9.60006 7.77341 9.3734 7.77341C9.14673 7.77341 8.80006 7.85341 8.4934 8.18675C8.20006 8.52008 7.34673 9.32008 7.34673 10.9467C7.34673 12.5734 8.5334 14.1467 8.6934 14.3601C8.8534 14.5867 11.0267 17.9201 14.3334 19.3467C15.1201 19.6934 15.7334 19.8934 16.2134 20.0401C17.0001 20.2934 17.7201 20.2534 18.2934 20.1734C18.9334 20.0801 20.2534 19.3734 20.5201 18.6001C20.8001 17.8267 20.8001 17.1734 20.7067 17.0267C20.6134 16.8801 20.4134 16.8134 20.0801 16.6534Z" fill="white"/>
</svg>
