<svg width="35" height="36" viewBox="0 0 35 36" fill="none" xmlns="http://www.w3.org/2000/svg">
<path fill-rule="evenodd" clip-rule="evenodd" d="M11.4543 3.3073L11.2174 3.22589L11.2173 3.22588C10.9803 3.14448 10.7434 3.06309 10.5854 3.14449L8.6895 2.5747L10.5064 1.7607C10.9804 1.51649 11.4543 1.35368 11.9283 1.19088L12.1653 1.10948L12.4023 1.19088L13.1132 1.4351C15.4041 2.0863 17.774 1.9235 20.1438 1.0281C20.2623 0.987396 20.3808 0.926341 20.4993 0.865285C20.6178 0.80423 20.7363 0.743175 20.8548 0.702474L21.0918 0.621094H21.3288C21.8817 0.702494 22.3557 0.865295 22.8297 1.0281L24.4886 1.59788L22.0397 2.81889C20.0649 3.6329 18.09 4.1213 16.0361 4.1213C14.0612 4.1213 12.4813 3.7143 11.4543 3.3073ZM4.74006 8.76088C5.12106 8.56458 5.55313 8.42087 5.95417 8.28748L5.95419 8.28747C6.05203 8.25493 6.14803 8.223 6.24099 8.19107C8.37386 7.62127 10.6647 7.70267 12.9556 8.59807C14.4565 9.16788 15.9574 9.41208 17.6163 9.41208C20.9341 9.41208 24.2519 8.19108 27.3328 5.83046L28.5177 4.85365L28.9127 4.52805L28.2017 3.95824C27.9647 3.71403 27.6487 3.46984 27.3328 3.30704L26.8588 2.98145L26.4638 3.30704C26.3848 3.34774 26.3256 3.40879 26.2663 3.46984C26.2071 3.53089 26.1478 3.59194 26.0688 3.63264C21.8821 6.88866 17.6953 7.78407 13.7456 6.23746C10.9017 5.17926 8.05787 4.93506 5.21403 5.83046C4.97705 5.91186 4.74006 5.99325 4.42408 6.07465L4.2661 6.15606L4.0291 6.40025C4.0291 6.45056 3.99893 6.46978 3.95723 6.49634C3.93146 6.51276 3.9013 6.53197 3.87112 6.56306C3.71313 6.80726 3.53539 7.03111 3.35765 7.25497L3.35765 7.25497C3.1799 7.47882 3.00216 7.70268 2.84417 7.94688L1.34326 10.3075L3.79212 9.00508C4.10502 9.00508 4.36833 8.90292 4.58207 8.81999C4.63815 8.79823 4.69081 8.7778 4.74006 8.76088ZM7.97854 13.4824C5.76667 14.1336 3.7128 15.3546 1.89591 17.3082C1.73395 17.4195 1.60888 17.5687 1.4955 17.7041C1.44297 17.7667 1.39295 17.8264 1.34293 17.878L0 19.3432L0.0790003 17.3082C0.119907 17.0553 0.139633 16.7805 0.160115 16.4953C0.179186 16.2297 0.198912 15.9549 0.237001 15.6802V15.436L0.394977 15.2732L0.789954 14.8662L2.44886 13.4824C4.02877 12.4242 5.60869 11.6102 7.26759 11.1218C9.87444 10.3892 12.7183 10.552 15.4831 11.6102C21.3288 13.8894 26.4635 10.5519 29.7813 7.29592L30.0973 6.97033L30.6502 6.40051L31.1242 7.05173C31.2135 7.17434 31.2915 7.29694 31.3668 7.4152C31.4914 7.611 31.6084 7.79489 31.7562 7.94714L32.0722 8.43553L31.6772 8.76115L30.6502 9.81934C27.9644 12.18 21.8027 16.5756 14.6932 13.8894C12.4023 12.994 10.1114 12.9126 7.97854 13.4824ZM9.55835 18.7735C11.6912 18.2037 13.9821 18.2851 16.273 19.1805C18.8008 20.1573 25.2784 21.5411 32.546 14.7848L33.731 13.5638L33.81 13.4824L34.1259 13.1568L33.9679 12.7498C33.8889 12.4243 33.731 12.0173 33.573 11.6104L33.573 11.6102L33.178 10.4706L32.388 11.2846C32.337 11.3897 32.2531 11.4609 32.1574 11.542C32.105 11.5865 32.049 11.6339 31.993 11.6916C28.5172 15.3546 23.1456 19.0991 16.9839 16.8199C14.2191 15.7617 11.3752 15.5988 8.76839 16.3314C6.24054 17.0641 4.02866 18.4479 1.97478 20.4015V20.3201L0.789851 21.6225C0.789851 21.6728 0.75968 21.692 0.717981 21.7186C0.692214 21.735 0.662045 21.7542 0.631875 21.7853L0.394874 22.0295L0.473875 22.3551C0.513372 22.5586 0.572617 22.7621 0.631862 22.9656C0.691108 23.1691 0.750354 23.3726 0.789851 23.5761L1.26383 24.8785L2.05378 23.8203C2.09328 23.7389 2.15253 23.6779 2.21177 23.6168C2.27102 23.5558 2.33026 23.4947 2.36976 23.4133L2.50705 23.2852C4.15446 21.7477 6.40796 19.6444 9.55835 18.7735ZM20.3806 27.5651C17.6157 26.5069 14.7719 26.3441 12.165 27.0767C10.3481 27.5651 8.61024 28.5419 7.03033 29.7629L5.92438 30.7397L5.6084 31.0653L6.31935 31.7165C6.36818 31.7165 6.38683 31.7476 6.4126 31.7906C6.42853 31.8172 6.44718 31.8483 6.47735 31.8794C6.593 31.9985 6.70866 32.0741 6.8553 32.1699L6.85534 32.1699L6.85539 32.1699C6.90905 32.205 6.96686 32.2428 7.03033 32.2864L7.50428 32.612L7.97826 32.2049C8.05726 32.1235 8.21525 31.9608 8.37324 31.8794C9.79516 30.6583 11.3751 29.8443 13.034 29.4373C15.1668 28.8675 17.4577 28.9489 19.7486 29.8443C21.6445 30.5769 25.5153 31.4723 30.176 29.4373L30.334 29.3559L30.571 29.1117C30.571 29.0614 30.6011 29.0422 30.6428 29.0157C30.6686 28.9992 30.6988 28.98 30.729 28.9489C31.1239 28.4605 31.5189 27.9721 31.8349 27.4023L33.4148 24.8789L30.8869 26.3441C27.1742 28.4605 23.7774 28.8675 20.3806 27.5651ZM22.6712 33.1001C22.5527 33.0594 22.4539 33.0187 22.3552 32.978C22.2564 32.9373 22.1577 32.8966 22.0392 32.8559C19.2744 31.7977 16.4305 31.6349 13.8237 32.3675L13.8235 32.3676C13.2706 32.5304 12.7177 32.6931 12.1648 32.9373L10.2689 33.8327L9.79492 34.0769L11.3748 34.6467L12.7967 35.1351L13.0337 35.2165L13.2707 35.1351C13.3497 35.108 13.4287 35.0718 13.5077 35.0356C13.6657 34.9633 13.8237 34.8909 13.9817 34.8909C14.1397 34.8909 14.2977 34.8095 14.4556 34.7281C16.3515 34.2397 18.4054 34.2397 20.6173 34.9723C20.7358 35.013 20.8345 35.0537 20.9333 35.0944C21.032 35.1351 21.1308 35.1758 21.2493 35.2165L21.6442 35.3793L21.8812 35.2979C21.9653 35.2732 22.0513 35.2484 22.1383 35.2233C22.6228 35.0837 23.1383 34.9352 23.5401 34.7281L25.752 33.9141L23.4611 33.3443C23.3426 33.3036 23.2044 33.2629 23.0662 33.2222C22.9279 33.1815 22.7897 33.1408 22.6712 33.1001ZM33.573 17.471L34.758 16.25L34.679 18.1223C34.679 18.3665 34.6592 18.631 34.6395 18.8956C34.6197 19.1601 34.6 19.4247 34.6 19.6689V19.913L34.363 20.1573C34.284 20.2387 34.205 20.2997 34.126 20.3608C34.047 20.4218 33.968 20.4829 33.889 20.5643C31.2032 22.9249 27.5694 25.0413 23.9356 25.4483C21.8817 25.6925 19.8278 25.4483 17.853 24.7157C15.5621 23.8203 13.2712 23.7389 11.1383 24.3087C8.76848 24.9599 6.7146 26.2623 4.81871 28.3787L4.50273 28.7043L3.94976 29.4369L3.4758 28.7043C3.31781 28.3787 3.15981 28.1345 2.92283 27.8089L2.60685 27.3205L2.92283 26.9135L3.94976 25.7739C5.92464 23.8203 8.13653 22.5179 10.5854 21.7853C13.1922 21.0527 16.0361 21.2154 18.8009 22.2737C24.6466 24.5529 29.8603 21.1341 33.0991 17.9594L33.573 17.471Z" fill="white"/>
</svg>
