<svg width="32" height="32" viewBox="0 0 32 32" fill="none" xmlns="http://www.w3.org/2000/svg">
<path d="M8 4C5.80671 4 4 5.80671 4 8V24C4 26.1933 5.80671 28 8 28H24C26.1933 28 28 26.1933 28 24V8C28 5.80671 26.1933 4 24 4H8ZM8 6.66667H24C24.7534 6.66667 25.3333 7.24663 25.3333 8V24C25.3333 24.7534 24.7534 25.3333 24 25.3333H8C7.24663 25.3333 6.66667 24.7534 6.66667 24V8C6.66667 7.24663 7.24663 6.66667 8 6.66667ZM16 9.33333V18.6667C16 19.42 15.42 20 14.6667 20C13.9133 20 13.3333 19.42 13.3333 18.6667C13.3333 17.9133 13.9133 17.3333 14.6667 17.3333V14.6667C12.4734 14.6667 10.6667 16.4734 10.6667 18.6667C10.6667 20.86 12.4734 22.6667 14.6667 22.6667C16.86 22.6667 18.6667 20.86 18.6667 18.6667V13.6432C19.4882 14.2285 20.3455 14.6667 21.3333 14.6667V12C21.2702 12 20.3502 11.7079 19.7083 11.1484C19.0664 10.589 18.6667 9.88665 18.6667 9.33333H16Z" fill="white"/>
</svg>
